<?xml version="1.0" encoding="UTF-8"?>
<svg id="Layer_2" data-name="Layer 2" xmlns="http://www.w3.org/2000/svg" xmlns:xlink="http://www.w3.org/1999/xlink" viewBox="0 0 1182.49 1182.49">
  <defs>
    <style>
      .cls-1 {
        fill: url(#linear-gradient-15);
      }

      .cls-2 {
        fill: url(#linear-gradient-13);
      }

      .cls-3 {
        fill: url(#linear-gradient-2);
      }

      .cls-4 {
        fill: url(#linear-gradient-10);
      }

      .cls-5 {
        fill: url(#linear-gradient-12);
      }

      .cls-6 {
        fill: #fff;
      }

      .cls-7 {
        fill: url(#linear-gradient-4);
      }

      .cls-8 {
        fill: url(#radial-gradient);
      }

      .cls-9 {
        fill: url(#linear-gradient-3);
      }

      .cls-10 {
        fill: url(#linear-gradient-5);
      }

      .cls-11 {
        fill: url(#linear-gradient-8);
      }

      .cls-12 {
        fill: url(#linear-gradient-14);
      }

      .cls-13 {
        fill: url(#linear-gradient-17);
      }

      .cls-14 {
        fill: url(#linear-gradient-7);
      }

      .cls-15 {
        fill: url(#linear-gradient-9);
      }

      .cls-16 {
        fill: url(#linear-gradient-11);
      }

      .cls-17 {
        fill: url(#linear-gradient-6);
      }

      .cls-18 {
        fill: url(#linear-gradient-16);
      }

      .cls-19 {
        fill: url(#linear-gradient);
      }

      .cls-20 {
        fill: url(#linear-gradient-18);
      }
    </style>
    <radialGradient id="radial-gradient" cx="1739.41" cy="591.24" fx="1739.41" fy="591.24" r="2401.41" gradientTransform="translate(-98.76) scale(.4 1)" gradientUnits="userSpaceOnUse">
      <stop offset="0" stop-color="#001d32"/>
      <stop offset=".11" stop-color="#001727"/>
      <stop offset=".43" stop-color="#000b11"/>
      <stop offset=".72" stop-color="#000404"/>
      <stop offset=".99" stop-color="#000200"/>
    </radialGradient>
    <linearGradient id="linear-gradient" x1="194.29" y1="712.26" x2="380.13" y2="712.26" gradientUnits="userSpaceOnUse">
      <stop offset="0" stop-color="#71c27a"/>
      <stop offset="1" stop-color="#4a99d3"/>
    </linearGradient>
    <linearGradient id="linear-gradient-2" x1="409.72" y1="716" x2="595.19" y2="716" xlink:href="#linear-gradient"/>
    <linearGradient id="linear-gradient-3" x1="602.66" x2="788.51" xlink:href="#linear-gradient"/>
    <linearGradient id="linear-gradient-4" x1="791.87" y1="716" x2="988.2" y2="716" xlink:href="#linear-gradient"/>
    <linearGradient id="linear-gradient-5" x1="355.03" y1="372.3" x2="378.83" y2="372.3" xlink:href="#linear-gradient"/>
    <linearGradient id="linear-gradient-6" x1="382.69" y1="372.3" x2="405.92" y2="372.3" xlink:href="#linear-gradient"/>
    <linearGradient id="linear-gradient-7" x1="408.36" y1="372.87" x2="433.18" y2="372.87" xlink:href="#linear-gradient"/>
    <linearGradient id="linear-gradient-8" x1="438.47" y1="372.3" x2="475.31" y2="372.3" xlink:href="#linear-gradient"/>
    <linearGradient id="linear-gradient-9" x1="476.1" y1="371.73" x2="510.94" y2="371.73" xlink:href="#linear-gradient"/>
    <linearGradient id="linear-gradient-10" x1="509.79" y1="372.3" x2="546.57" y2="372.3" xlink:href="#linear-gradient"/>
    <linearGradient id="linear-gradient-11" x1="552.37" y1="372.3" x2="582.77" y2="372.3" xlink:href="#linear-gradient"/>
    <linearGradient id="linear-gradient-12" x1="601.94" y1="372.3" x2="635.08" y2="372.3" xlink:href="#linear-gradient"/>
    <linearGradient id="linear-gradient-13" x1="637.75" y1="372.3" x2="674.52" y2="372.3" xlink:href="#linear-gradient"/>
    <linearGradient id="linear-gradient-14" x1="680.32" y1="372.3" x2="703.55" y2="372.3" xlink:href="#linear-gradient"/>
    <linearGradient id="linear-gradient-15" x1="707.59" y1="372.3" x2="730.81" y2="372.3" xlink:href="#linear-gradient"/>
    <linearGradient id="linear-gradient-16" x1="734.85" y1="372.3" x2="758.08" y2="372.3" xlink:href="#linear-gradient"/>
    <linearGradient id="linear-gradient-17" x1="761.94" y1="372.3" x2="798.77" y2="372.3" xlink:href="#linear-gradient"/>
    <linearGradient id="linear-gradient-18" x1="804.23" y1="372.3" x2="827.46" y2="372.3" xlink:href="#linear-gradient"/>
  </defs>
  <g id="Layer_1-2" data-name="Layer 1">
    <g>
      <rect class="cls-8" width="1182.49" height="1182.49"/>
      <g>
        <g>
          <g>
            <path class="cls-6" d="M263.05,427.81c25.43,0,43.05,9.59,57.33,24.54l-22.53,21.41c-9.37-9.15-21.41-14.95-34.8-14.95-23.87,0-39.26,17.85-39.26,40.38s15.39,40.38,39.26,40.38c13.38,0,25.43-5.8,34.8-14.95l21.86,21.41c-13.38,14.05-31.9,24.54-56.66,24.54-42.38,0-72.5-31.45-72.5-71.38s30.11-71.38,72.5-71.38ZM263.05,564.33c19.63,0,34.35-6.25,46.85-17.85l-12.72-12.94c-8.03,7.14-20.75,12.27-34.13,12.27-28.78,0-47.74-20.52-47.74-46.62s18.96-46.62,47.74-46.62c12.71,0,24.98,4.69,34.58,12.05l12.71-12.27c-11.82-12.05-27.21-18.29-47.29-18.29-37.25,0-64.24,28.78-64.24,65.14s26.99,65.14,64.24,65.14ZM201.25,494.29h12.05l-.22,1.12h-12.05l.22-1.12ZM201.03,498.75h12.05v1.12h-12.05v-1.12ZM201.03,503.21h12.05l.22,1.12h-12.05l-.22-1.12ZM201.7,489.83h12.27l-.45,1.12h-12.05l.22-1.12ZM201.48,507.67h12.05l.45,1.12h-12.27l-.22-1.12ZM202.37,485.36h12.49l-.45,1.12h-12.27l.22-1.12ZM202.15,512.13h12.27l.45,1.12h-12.27l-.45-1.12ZM203.49,480.9h12.71l-.45,1.12h-12.49l.22-1.12ZM203.26,516.59h12.49l.45,1.12h-12.71l-.22-1.12ZM204.82,476.44h13.38l-.67,1.12h-12.94l.22-1.12ZM204.6,521.06h12.94l.67,1.12h-13.38l-.22-1.12ZM206.61,471.98h14.05l-.89,1.12h-13.61l.45-1.12ZM206.16,525.52h13.83l.89,1.12h-14.05l-.67-1.12ZM208.84,467.52h15.17l-.89,1.12h-14.95l.67-1.12ZM208.39,529.98h14.72l1.12,1.12h-15.17l-.67-1.12ZM211.74,463.06h16.51l-1.34,1.12h-16.06l.89-1.12ZM211.07,534.44h16.06l1.12,1.12h-16.51l-.67-1.12ZM214.86,458.6h18.74l-1.56,1.12h-18.07l.89-1.12ZM214.42,538.9h17.85l1.34,1.12h-18.52l-.67-1.12ZM219.1,454.13h23.42l-2.9,1.12h-21.64l1.12-1.12ZM240.07,543.36l2.23,1.12h-22.98l-1.12-1.12h21.86ZM224.23,449.67h38.81v.45l-8.7.67h-31.9l1.79-1.12ZM255.68,547.82c2.23,0,5.35.22,7.36.45v.67h-38.37l-1.34-1.12h32.35ZM230.7,445.21h32.35v1.12h-34.13l1.78-1.12ZM263.05,552.29v1.12h-31.9l-1.56-1.12h33.46ZM239.85,440.75h23.2v1.12h-26.1l2.9-1.12ZM263.05,556.75v1.12h-22.75l-2.9-1.12h25.65ZM263.05,436.51v.89h-11.38c3.79-.67,4.91-.89,11.38-.89ZM263.05,561.21v.67h-.45l-10.04-.67h10.48Z"/>
            <path class="cls-6" d="M365.21,526.86c0,7.81,6.25,14.05,13.83,14.05,8.25,0,13.38-4.68,13.38-11.6,0-10.04-13.16-12.94-24.09-16.73-22.53-8.03-35.02-18.51-35.02-41.49s20.3-43.28,45.51-43.28c29.67,0,43.72,18.96,45.51,43.72h-30.78c0-7.58-4.68-13.83-13.83-13.83-7.14,0-14.05,4.24-14.05,12.94,0,10.04,12.27,11.82,23.65,15.17,23.87,7.14,35.02,20.52,35.02,41.49,0,23.65-20.08,43.28-45.28,43.28-29.22,0-45.73-19.63-45.73-43.72h31.9ZM379.04,564.33c20.75,0,37.7-16.73,37.7-37.03,0-22.53-13.38-30.78-33.91-36.58-13.16-3.79-24.54-6.92-24.54-20.08,0-11.6,8.7-19.18,20.75-19.18,13.83,0,18.52,8.25,20.52,13.83h16.73c-1.34-13.16-11.15-31.23-37.25-31.23-20.75,0-38.15,16.73-38.15,37.03,0,16.51,6.25,26.99,30.78,35.69,12.72,4.68,28.11,8.03,28.11,22.53,0,11.82-10.26,17.85-20.75,17.85-11.38-.22-18.51-6.69-20.52-14.05h-17.4c.45,16.73,16.73,31.23,37.92,31.23ZM343.12,468.63h12.94v1.12h-12.94v-1.12ZM343.12,473.1h12.94l.22,1.12h-13.16v-1.12ZM344.01,463.95h12.94l-.45,1.34h-12.94l.45-1.34ZM343.57,477.78h13.38l.45,1.12h-13.61l-.22-1.12ZM344.68,482.24h14.95l-.22-.22,1.34,1.34h-15.84l-.22-1.12ZM345.13,459.49h13.61l-.67,1.12h-13.16l.22-1.12ZM347.36,454.8h15.39l-1.56,1.34h-14.5l.67-1.34ZM346.91,486.93h18.07l1.78,1.12h-19.18l-.67-1.12ZM350.26,450.34h19.63l-2.45,1.12h-18.07l.89-1.12ZM350.48,491.39h25.65l4.24,1.12h-28.78l-1.12-1.12ZM354.5,445.88h24.54v1.12h-25.88l1.34-1.12ZM355.61,495.85h35.02l3.35,1.34h-35.91l-2.45-1.34ZM361.19,441.2h17.85v1.12h-19.63l1.78-1.12ZM400.23,500.53l1.34,1.12h-35.47l-1.79-1.12h35.91ZM374.35,436.74h4.68v1.12h-10.04l5.35-1.12ZM406.25,504.99l1.12,1.34h-30.56l-3.35-1.34h32.79ZM379.04,550.72h25.43l-1.12,1.12h-24.32v-1.12ZM379.04,555.19h20.08l-1.56,1.12h-18.52v-1.12ZM379.04,559.87h11.38l-4.24,1.12h-7.14v-1.12ZM410.04,509.68l.45,1.12h-21.64l-2.45-1.12h23.65ZM392.64,546.04h15.84l-.67.89-.22.45h-17.62l2.68-1.34ZM412.05,514.14l.45,1.12h-16.28l-1.34-1.12h17.18ZM397.77,541.58h13.16l-.67,1.12h-13.61l1.12-1.12ZM398.89,518.83h14.72l.45,1.12h-14.5l-.67-1.12ZM400.67,536.89h12.27l-.45,1.34h-12.49l.67-1.34ZM401.12,523.29h13.16v1.12h-12.94l-.22-1.12ZM401.79,532.43h12.27l-.22,1.12h-12.27l.22-1.12ZM402.01,527.97h12.49l-.22,1.12h-12.27v-1.12Z"/>
            <path class="cls-6" d="M446.4,432.27h88.56v29h-55.77v24.09h51.53v28.55h-51.53v24.09h58.22v28.11h-91.01v-133.84ZM529.16,559.87v-15.62h-58.22v-36.58h51.53v-16.06h-51.53v-36.58h55.77v-16.51h-72.05v121.35h74.51ZM458.67,556.08h68.26v1.12h-69.37l1.12-1.12ZM457.77,441.64h66.7v1.12h-65.58l-1.12-1.12ZM462.23,446.1h62.24v1.12h-61.12l-1.12-1.12ZM463.35,551.62h63.57v1.12h-64.69l1.12-1.12ZM466.7,450.57h57.77v1.12h-56.66l-1.12-1.12ZM468.03,547.16h58.89v1.12h-60.23l1.34-1.12ZM470.93,494.51h49.3v1.12h-49.3v-1.12ZM470.93,498.97h49.3v1.12h-49.3v-1.12ZM470.93,503.43h49.3v1.12h-49.3v-1.12Z"/>
          </g>
          <g>
            <path class="cls-6" d="M587.98,432.27h86.33v29h-53.54v28.55h49.3v28.55h-49.3v47.74h-32.79v-133.84ZM612.51,559.87v-47.74h49.3v-16.06h-49.3v-41.05h53.54v-16.51h-69.82v121.35h16.28ZM599.35,441.64h64.47v1.12h-63.35l-1.11-1.12ZM603.82,446.1h60.01v1.12h-58.89l-1.11-1.12ZM608.28,450.57h55.55v1.12h-54.43l-1.12-1.12ZM612.51,498.97h47.07v1.12h-47.07v-1.12ZM612.51,503.43h47.07v1.12h-47.07v-1.12ZM612.51,507.89h47.07v1.12h-47.07v-1.12Z"/>
            <path class="cls-6" d="M687.91,432.27h88.56v29h-55.77v24.09h51.53v28.55h-51.53v24.09h58.22v28.11h-91.01v-133.84ZM770.67,559.87v-15.62h-58.22v-36.58h51.53v-16.06h-51.53v-36.58h55.77v-16.51h-72.05v121.35h74.51ZM700.18,556.08h68.26v1.12h-69.38l1.11-1.12ZM699.29,441.64h66.7v1.12h-65.58l-1.11-1.12ZM703.75,446.1h62.24v1.12h-61.12l-1.11-1.12ZM704.86,551.62h63.58v1.12h-64.69l1.11-1.12ZM708.21,450.57h57.78v1.12h-56.66l-1.11-1.12ZM709.55,547.16h58.89v1.12h-60.23l1.34-1.12ZM712.45,494.51h49.3v1.12h-49.3v-1.12ZM712.45,498.97h49.3v1.12h-49.3v-1.12ZM712.45,503.43h49.3v1.12h-49.3v-1.12Z"/>
            <path class="cls-6" d="M825.98,526.86c0,7.81,6.25,14.05,13.83,14.05,8.25,0,13.38-4.68,13.38-11.6,0-10.04-13.16-12.94-24.09-16.73-22.53-8.03-35.02-18.51-35.02-41.49s20.3-43.28,45.51-43.28c29.67,0,43.72,18.96,45.51,43.72h-30.79c0-7.58-4.68-13.83-13.83-13.83-7.14,0-14.05,4.24-14.05,12.94,0,10.04,12.27,11.82,23.65,15.17,23.87,7.14,35.02,20.52,35.02,41.49,0,23.65-20.08,43.28-45.28,43.28-29.22,0-45.73-19.63-45.73-43.72h31.9ZM839.81,564.33c20.75,0,37.7-16.73,37.7-37.03,0-22.53-13.39-30.78-33.91-36.58-13.16-3.79-24.54-6.92-24.54-20.08,0-11.6,8.7-19.18,20.75-19.18,13.83,0,18.51,8.25,20.52,13.83h16.73c-1.34-13.16-11.15-31.23-37.25-31.23-20.75,0-38.15,16.73-38.15,37.03,0,16.51,6.25,26.99,30.78,35.69,12.71,4.68,28.11,8.03,28.11,22.53,0,11.82-10.26,17.85-20.75,17.85-11.38-.22-18.52-6.69-20.52-14.05h-17.4c.44,16.73,16.73,31.23,37.92,31.23ZM803.9,468.63h12.94v1.12h-12.94v-1.12ZM803.9,473.1h12.94l.22,1.12h-13.16v-1.12ZM804.79,463.95h12.94l-.45,1.34h-12.94l.45-1.34ZM804.34,477.78h13.39l.45,1.12h-13.61l-.22-1.12ZM805.46,482.24h14.95l-.22-.22,1.34,1.34h-15.84l-.22-1.12ZM805.9,459.49h13.61l-.67,1.12h-13.16l.22-1.12ZM808.13,454.8h15.39l-1.56,1.34h-14.5l.67-1.34ZM807.69,486.93h18.07l1.79,1.12h-19.19l-.67-1.12ZM811.04,450.34h19.63l-2.45,1.12h-18.07l.89-1.12ZM811.26,491.39h25.65l4.24,1.12h-28.78l-1.11-1.12ZM815.27,445.88h24.54v1.12h-25.88l1.34-1.12ZM816.39,495.85h35.02l3.35,1.34h-35.91l-2.45-1.34ZM821.97,441.2h17.85v1.12h-19.63l1.78-1.12ZM861,500.53l1.34,1.12h-35.47l-1.78-1.12h35.91ZM835.13,436.74h4.68v1.12h-10.04l5.35-1.12ZM867.03,504.99l1.12,1.34h-30.56l-3.35-1.34h32.79ZM839.81,550.72h25.43l-1.12,1.12h-24.31v-1.12ZM839.81,555.19h20.08l-1.56,1.12h-18.51v-1.12ZM839.81,559.87h11.38l-4.24,1.12h-7.14v-1.12ZM870.82,509.68l.44,1.12h-21.64l-2.45-1.12h23.65ZM853.42,546.04h15.84l-.67.89-.22.45h-17.62l2.68-1.34ZM872.83,514.14l.45,1.12h-16.29l-1.34-1.12h17.18ZM858.55,541.58h13.16l-.67,1.12h-13.61l1.12-1.12ZM859.66,518.83h14.72l.45,1.12h-14.5l-.67-1.12ZM861.45,536.89h12.27l-.44,1.34h-12.49l.67-1.34ZM861.89,523.29h13.16v1.12h-12.94l-.22-1.12ZM862.56,532.43h12.27l-.22,1.12h-12.27l.22-1.12ZM862.79,527.97h12.49l-.22,1.12h-12.27v-1.12Z"/>
            <path class="cls-6" d="M928.81,461.27h-30.11v-29h93.24v29h-30.34v104.84h-32.79v-104.84ZM953.35,559.87v-104.84h30.34v-16.51h-76.74v16.51h30.11v104.84h16.28ZM909.18,441.87h72.27v1.12h-72.27v-1.12ZM909.18,446.33h72.27v1.12h-72.27v-1.12ZM909.18,450.79h72.27v1.12h-72.27v-1.12Z"/>
          </g>
        </g>
        <g>
          <path class="cls-19" d="M194.29,822.41l65.2-69.69c-32.97-12.36-52.83-43.09-52.83-74.19,0-44.96,38.97-82.43,87.3-82.43s86.18,37.47,86.18,82.43c0,22.48-9.74,43.09-26.6,59.95l-40.47,40.84h67.07v49.08h-185.84v-5.99ZM366.27,817.92v-28.1h-75.31v-5.62l50.21-50.58c17.61-17.98,25.1-34.47,25.1-55.08,0-39.34-32.22-71.94-72.31-71.94s-73.81,32.6-73.81,71.94c0,26.23,13.49,54.33,55.08,68.94l.37,6.37-60.32,64.07h151ZM225.01,812.3h137.89v1.87h-139.76l1.87-1.87ZM232.13,804.8h130.76v1.87h-132.64l1.87-1.87ZM239.25,797.31h123.65v1.87h-125.52l1.87-1.87ZM246.37,789.82h41.22v1.87h-43.09l1.87-1.87ZM248.61,678.53c0-22.86,19.48-41.59,45.34-41.59s44.21,18.73,44.21,41.59-18.73,41.96-44.21,41.96-45.34-18.73-45.34-41.96ZM253.49,782.32h34.1v1.87h-35.97l1.87-1.87ZM260.6,774.83h34.47l-1.87,1.87h-34.47l1.87-1.87ZM325.05,678.53c0-16.86-13.49-30.35-31.1-30.35s-32.22,13.49-32.22,30.35,14.24,30.72,32.22,30.72,31.1-13.49,31.1-30.72ZM267.73,767.34h34.84l-1.87,1.87h-34.84l1.87-1.87ZM274.84,759.84h35.22l-1.87,1.87h-35.22l1.87-1.87ZM282.34,752.35h35.22l-1.87,1.87h-35.59l2.25-1.87ZM290.58,744.85h34.47l-1.87,1.87h-34.85l2.25-1.87ZM290.96,610.34l16.11,1.5h-16.11v-1.5ZM290.96,617.46h33.35l3.37,1.87h-36.72v-1.87ZM290.96,624.96h45.71l2.62,1.87h-48.33v-1.87ZM290.96,632.45h53.58l1.87,1.87h-41.59l-10.87-1.12h-3v-.75ZM298.82,737.36h33.35l-1.87,1.87h-33.72l2.25-1.87ZM307.07,729.87h32.6l-1.87,1.87h-32.97l2.25-1.87ZM315.31,722.37h31.1l-1.5,1.87h-31.85l2.25-1.87ZM350.53,639.94l1.5,1.87h-29.23l-3-1.87h30.72ZM323.55,714.88h28.1l-1.5,1.87h-28.85l2.25-1.87ZM328.8,647.44h26.23l.75,1.87h-25.1l-1.87-1.87ZM331.05,707.39h25.1l-1.12,1.87h-25.85l1.87-1.87ZM334.79,654.93h23.6l.75,1.87h-23.23l-1.12-1.87ZM336.29,699.89h22.86l-.75,1.87h-23.23l1.12-1.87ZM338.54,662.42h22.11l.75,1.87h-22.48l-.37-1.87ZM339.29,692.4h22.11l-.75,1.87h-22.11l.75-1.87ZM340.41,669.92h21.73v1.87h-20.98l-.75-1.87ZM341.16,684.9h21.36l-.37,1.87h-21.73l.75-1.87ZM341.54,677.41h21.36v1.87h-21.36v-1.87Z"/>
          <path class="cls-3" d="M409.72,603.6h55.08v100.42h.75l64.82-100.42h60.7l-77.19,106.79,81.31,118.03h-60.7l-68.94-109.03h-.75v109.03h-55.08v-224.81ZM450.93,817.92v-203.83h-27.35v203.83h27.35ZM543.1,817.92h30.72l-73.44-107.91,68.57-95.92h-29.6l-65.2,97.04,68.94,106.78ZM480.53,707.76h16.11l-1.5,1.87h-16.11l1.5-1.87ZM481.66,715.25h17.24l1.5,1.87h-17.61l-1.12-1.87ZM485.78,700.27h17.24l-1.5,1.87h-17.24l1.5-1.87ZM486.53,722.75h17.61l1.12,1.5h-17.99l-.75-1.5ZM490.65,692.77h17.99l-1.5,1.87h-17.98l1.5-1.87ZM491.02,729.87h17.61l1.5,1.87h-17.98l-1.12-1.87ZM495.89,685.28h17.98l-1.5,1.87h-17.99l1.5-1.87ZM495.89,737.36h17.98l1.5,1.87h-18.36l-1.12-1.87ZM500.77,677.78h18.36l-1.5,1.87h-18.36l1.5-1.87ZM500.77,744.85h17.98l1.5,1.87h-18.36l-1.12-1.87ZM506.01,670.29h18.36l-1.5,1.87h-18.36l1.5-1.87ZM505.63,752.35h18.36l1.5,1.87h-18.74l-1.12-1.87ZM510.88,662.8h18.73l-1.5,1.87h-18.73l1.5-1.87ZM528.87,759.84l1.5,1.87h-18.73l-1.12-1.87h18.36ZM516.13,655.3h18.73l-1.5,1.87h-18.74l1.5-1.87ZM534.11,767.34l1.5,1.87h-19.11l-1.12-1.87h18.73ZM521,647.81h19.11l-1.5,1.87h-19.11l1.5-1.87ZM538.98,774.83l1.5,1.87h-19.48l-1.12-1.87h19.11ZM525.87,640.69h19.49l-1.5,1.87h-19.48l1.5-1.87ZM544.23,782.32l1.5,1.87h-19.86l-1.12-1.87h19.48ZM530.74,633.2h19.86l-1.5,1.87h-19.86l1.5-1.87ZM549.1,789.82l1.87,1.87h-20.23l-1.12-1.87h19.49ZM535.99,625.7h19.86l-1.5,1.87h-19.86l1.5-1.87ZM554.34,797.31l1.87,1.87h-20.61l-1.12-1.87h19.86ZM559.59,804.43l1.5,1.87h-20.98l-1.12-1.87h20.61ZM540.86,618.21h20.23l-1.5,1.87h-20.23l1.5-1.87ZM564.46,811.92l1.87,1.87h-21.36l-1.12-1.87h20.61Z"/>
          <path class="cls-9" d="M602.66,822.41l65.2-69.69c-32.97-12.36-52.83-43.09-52.83-74.19,0-44.96,38.97-82.43,87.3-82.43s86.18,37.47,86.18,82.43c0,22.48-9.74,43.09-26.6,59.95l-40.47,40.84h67.07v49.08h-185.84v-5.99ZM774.65,817.92v-28.1h-75.31v-5.62l50.21-50.58c17.61-17.98,25.1-34.47,25.1-55.08,0-39.34-32.22-71.94-72.31-71.94s-73.81,32.6-73.81,71.94c0,26.23,13.49,54.33,55.08,68.94l.37,6.37-60.32,64.07h151ZM633.39,812.3h137.89v1.87h-139.76l1.87-1.87ZM640.51,804.8h130.76v1.87h-132.64l1.87-1.87ZM647.63,797.31h123.65v1.87h-125.52l1.87-1.87ZM654.75,789.82h41.22v1.87h-43.09l1.87-1.87ZM656.99,678.53c0-22.86,19.48-41.59,45.34-41.59s44.21,18.73,44.21,41.59-18.73,41.96-44.21,41.96-45.34-18.73-45.34-41.96ZM661.86,782.32h34.1v1.87h-35.97l1.87-1.87ZM668.98,774.83h34.47l-1.87,1.87h-34.47l1.87-1.87ZM733.43,678.53c0-16.86-13.49-30.35-31.1-30.35s-32.22,13.49-32.22,30.35,14.24,30.72,32.22,30.72,31.1-13.49,31.1-30.72ZM676.1,767.34h34.84l-1.87,1.87h-34.84l1.87-1.87ZM683.22,759.84h35.22l-1.87,1.87h-35.22l1.87-1.87ZM690.72,752.35h35.22l-1.87,1.87h-35.59l2.25-1.87ZM698.96,744.85h34.47l-1.87,1.87h-34.85l2.25-1.87ZM699.33,610.34l16.11,1.5h-16.11v-1.5ZM699.33,617.46h33.35l3.37,1.87h-36.72v-1.87ZM699.33,624.96h45.71l2.62,1.87h-48.33v-1.87ZM699.33,632.45h53.58l1.87,1.87h-41.59l-10.87-1.12h-3v-.75ZM707.2,737.36h33.35l-1.87,1.87h-33.72l2.25-1.87ZM715.45,729.87h32.6l-1.87,1.87h-32.97l2.25-1.87ZM723.69,722.37h31.1l-1.5,1.87h-31.85l2.25-1.87ZM758.91,639.94l1.5,1.87h-29.23l-3-1.87h30.72ZM731.93,714.88h28.1l-1.5,1.87h-28.85l2.25-1.87ZM737.18,647.44h26.23l.75,1.87h-25.1l-1.87-1.87ZM739.43,707.39h25.1l-1.12,1.87h-25.85l1.87-1.87ZM743.17,654.93h23.6l.75,1.87h-23.23l-1.12-1.87ZM744.67,699.89h22.86l-.75,1.87h-23.23l1.12-1.87ZM746.92,662.42h22.11l.75,1.87h-22.48l-.37-1.87ZM747.67,692.4h22.11l-.75,1.87h-22.11l.75-1.87ZM748.79,669.92h21.73v1.87h-20.98l-.75-1.87ZM749.54,684.9h21.36l-.37,1.87h-21.73l.75-1.87ZM749.92,677.41h21.36v1.87h-21.36v-1.87Z"/>
          <path class="cls-7" d="M791.87,775.95l106.41-172.36h53.21v132.64h36.72v46.09h-36.72v46.09h-52.08v-46.09h-107.53v-6.37ZM913.27,771.83v46.09h24.35v-46.09h36.72v-25.1h-36.72v-132.64h-30.35l-97.42,157.74h103.41ZM817.35,765.84h153.62v1.87h-155.12l1.5-1.87ZM821.84,758.34h149.12v1.87h-150.25l1.12-1.87ZM826.34,751.22h144.63v1.87h-146.13l1.5-1.87ZM830.83,743.73h19.48l-1.5,1.87h-19.11l1.12-1.87ZM835.7,736.24h19.11l-1.5,1.87h-19.11l1.5-1.87ZM840.2,728.74h19.11l-1.5,1.87h-18.74l1.12-1.87ZM844.7,721.62h18.73l-.75,1.5h-18.73l.75-1.5ZM849.57,714.13h18.36l-1.5,1.87h-18.36l1.5-1.87ZM911.77,647.06h1.5v99.67h-60.7l59.2-99.67ZM854.07,706.64h18.36l-1.5,1.87h-17.98l1.12-1.87ZM858.93,699.14h17.99l-1.5,1.87h-17.98l1.5-1.87ZM863.43,691.65h17.99l-1.5,1.87h-17.61l1.12-1.87ZM867.93,684.53h17.61l-1.12,1.87h-17.99l1.5-1.87ZM899.4,736.24v-47.96l-28.48,47.96h28.48ZM872.42,677.04h17.24l-1.12,1.87h-17.24l1.12-1.87ZM877.3,669.54h16.86l-1.12,1.87h-17.24l1.5-1.87ZM881.79,662.05h16.86l-1.12,1.87h-16.86l1.12-1.87ZM886.29,654.93h16.49l-.75,1.5h-16.49l.75-1.5ZM890.78,647.44h16.49l-1.5,1.87h-16.11l1.12-1.87ZM895.65,639.94h15.36l-1.5,1.87h-15.36l1.5-1.87ZM900.15,632.45h15.36l-1.5,1.87h-15.36l1.5-1.87ZM904.65,624.96h15.36l-1.5,1.87h-14.99l1.12-1.87ZM909.14,617.84h15.36l-1.5,1.87h-15.36l1.5-1.87Z"/>
        </g>
        <g>
          <path class="cls-10" d="M362.66,362.62h-7.63v-7.4h23.8v7.4h-7.74v26.76h-8.43v-26.76Z"/>
          <path class="cls-17" d="M382.69,355.22h22.6v7.4h-14.23v6.15h13.15v7.29h-13.15v6.15h14.86v7.17h-23.23v-34.16Z"/>
          <path class="cls-14" d="M416.45,378.79c.4,2.45,1.37,3.99,4.04,3.99s4.44-1.14,4.44-5.29v-22.26h8.26v23.74c0,7.17-5.64,11.56-12.3,11.56-7.12,0-12.53-4.27-12.53-11.44l8.08-.28Z"/>
          <path class="cls-11" d="M456.97,354.08c6.32,0,10.7,2.33,14.29,5.98l-5.81,5.35c-2.33-2.11-5.24-3.42-8.48-3.42-6.09,0-10.02,4.55-10.02,10.3,0,6.32,4.5,10.3,10.19,10.3,5.98,0,8.88-3.3,9.11-6.6h-9.73v-7.23h18.79v3.25c0,10.08-5.92,18.5-18.33,18.5-10.82,0-18.5-8.03-18.5-18.22s7.68-18.22,18.5-18.22Z"/>
          <path class="cls-15" d="M492.72,354.08h1.48l16.74,35.3h-8.99l-1.71-3.53h-13.49l-1.65,3.53h-8.99l16.62-35.3ZM497.39,379.87l-3.93-8.65h-.11l-3.99,8.65h8.03Z"/>
          <path class="cls-4" d="M528.18,354.08c10.76,0,18.39,8.03,18.39,18.22s-7.63,18.22-18.39,18.22-18.39-8.03-18.39-18.22,7.57-18.22,18.39-18.22ZM528.18,382.6c6.03,0,9.91-4.55,9.91-10.3s-3.87-10.3-9.91-10.3-9.9,4.55-9.9,10.3,3.81,10.3,9.9,10.3Z"/>
          <path class="cls-16" d="M552.37,355.22h8.82l13.26,20.27v-20.27h8.31v34.16h-8.71l-13.32-20.32v20.32h-8.37v-34.16Z"/>
          <path class="cls-5" d="M620.45,354.08c6.49,0,10.99,2.45,14.63,6.26l-5.75,5.47c-2.39-2.33-5.47-3.81-8.88-3.81-6.09,0-10.02,4.55-10.02,10.3s3.93,10.3,10.02,10.3c3.42,0,6.49-1.48,8.88-3.81l5.58,5.47c-3.42,3.59-8.14,6.26-14.46,6.26-10.82,0-18.5-8.03-18.5-18.22s7.69-18.22,18.5-18.22Z"/>
          <path class="cls-2" d="M656.13,354.08c10.76,0,18.39,8.03,18.39,18.22s-7.63,18.22-18.39,18.22-18.39-8.03-18.39-18.22,7.57-18.22,18.39-18.22ZM656.13,382.6c6.03,0,9.9-4.55,9.9-10.3s-3.87-10.3-9.9-10.3-9.9,4.55-9.9,10.3,3.81,10.3,9.9,10.3Z"/>
          <path class="cls-12" d="M680.32,355.22h8.37v26.98h14.86v7.17h-23.23v-34.16Z"/>
          <path class="cls-1" d="M707.59,355.22h8.37v26.98h14.86v7.17h-23.23v-34.16Z"/>
          <path class="cls-18" d="M734.85,355.22h22.6v7.4h-14.23v6.15h13.15v7.29h-13.15v6.15h14.86v7.17h-23.23v-34.16Z"/>
          <path class="cls-13" d="M780.44,354.08c6.32,0,10.7,2.33,14.29,5.98l-5.81,5.35c-2.33-2.11-5.24-3.42-8.48-3.42-6.09,0-10.02,4.55-10.02,10.3,0,6.32,4.5,10.3,10.19,10.3,5.98,0,8.88-3.3,9.11-6.6h-9.74v-7.23h18.79v3.25c0,10.08-5.92,18.5-18.33,18.5-10.82,0-18.5-8.03-18.5-18.22s7.69-18.22,18.5-18.22Z"/>
          <path class="cls-20" d="M804.23,355.22h22.6v7.4h-14.23v6.15h13.15v7.29h-13.15v6.15h14.86v7.17h-23.23v-34.16Z"/>
        </g>
      </g>
    </g>
  </g>
</svg>