<?xml version="1.0" encoding="UTF-8"?>
<svg id="Layer_2" data-name="Layer 2" xmlns="http://www.w3.org/2000/svg" xmlns:xlink="http://www.w3.org/1999/xlink" viewBox="0 0 801.39 474.33">
  <defs>
    <style>
      .cls-1 {
        fill: url(#linear-gradient-15);
      }

      .cls-2 {
        fill: url(#linear-gradient-13);
      }

      .cls-3 {
        fill: url(#linear-gradient-2);
      }

      .cls-4 {
        fill: url(#linear-gradient-10);
      }

      .cls-5 {
        fill: url(#linear-gradient-12);
      }

      .cls-6 {
        fill: #fff;
      }

      .cls-7 {
        fill: url(#linear-gradient-4);
      }

      .cls-8 {
        fill: url(#linear-gradient-3);
      }

      .cls-9 {
        fill: url(#linear-gradient-5);
      }

      .cls-10 {
        fill: url(#linear-gradient-8);
      }

      .cls-11 {
        fill: url(#linear-gradient-14);
      }

      .cls-12 {
        fill: url(#linear-gradient-17);
      }

      .cls-13 {
        fill: url(#linear-gradient-7);
      }

      .cls-14 {
        fill: url(#linear-gradient-9);
      }

      .cls-15 {
        fill: url(#linear-gradient-11);
      }

      .cls-16 {
        fill: url(#linear-gradient-6);
      }

      .cls-17 {
        fill: url(#linear-gradient-16);
      }

      .cls-18 {
        fill: url(#linear-gradient);
      }

      .cls-19 {
        fill: url(#linear-gradient-18);
      }
    </style>
    <linearGradient id="linear-gradient" x1="3.74" y1="358.18" x2="189.58" y2="358.18" gradientUnits="userSpaceOnUse">
      <stop offset="0" stop-color="#71c27a"/>
      <stop offset="1" stop-color="#4a99d3"/>
    </linearGradient>
    <linearGradient id="linear-gradient-2" x1="219.17" y1="361.92" x2="404.64" y2="361.92" xlink:href="#linear-gradient"/>
    <linearGradient id="linear-gradient-3" x1="412.12" x2="597.96" xlink:href="#linear-gradient"/>
    <linearGradient id="linear-gradient-4" x1="601.32" y1="361.92" x2="797.65" y2="361.92" xlink:href="#linear-gradient"/>
    <linearGradient id="linear-gradient-5" x1="164.48" y1="18.22" x2="188.28" y2="18.22" xlink:href="#linear-gradient"/>
    <linearGradient id="linear-gradient-6" x1="192.15" y1="18.22" x2="215.37" y2="18.22" xlink:href="#linear-gradient"/>
    <linearGradient id="linear-gradient-7" x1="217.81" y1="18.79" x2="242.64" y2="18.79" xlink:href="#linear-gradient"/>
    <linearGradient id="linear-gradient-8" x1="247.93" y1="18.22" x2="284.76" y2="18.22" xlink:href="#linear-gradient"/>
    <linearGradient id="linear-gradient-9" x1="285.55" y1="17.65" x2="320.39" y2="17.65" xlink:href="#linear-gradient"/>
    <linearGradient id="linear-gradient-10" x1="319.24" y1="18.22" x2="356.02" y2="18.22" xlink:href="#linear-gradient"/>
    <linearGradient id="linear-gradient-11" x1="361.82" y1="18.22" x2="392.22" y2="18.22" xlink:href="#linear-gradient"/>
    <linearGradient id="linear-gradient-12" x1="411.4" y1="18.22" x2="444.53" y2="18.22" xlink:href="#linear-gradient"/>
    <linearGradient id="linear-gradient-13" x1="447.2" y1="18.22" x2="483.97" y2="18.22" xlink:href="#linear-gradient"/>
    <linearGradient id="linear-gradient-14" x1="489.77" y1="18.22" x2="513" y2="18.22" xlink:href="#linear-gradient"/>
    <linearGradient id="linear-gradient-15" x1="517.04" y1="18.22" x2="540.27" y2="18.22" xlink:href="#linear-gradient"/>
    <linearGradient id="linear-gradient-16" x1="544.3" y1="18.22" x2="567.53" y2="18.22" xlink:href="#linear-gradient"/>
    <linearGradient id="linear-gradient-17" x1="571.39" y1="18.22" x2="608.23" y2="18.22" xlink:href="#linear-gradient"/>
    <linearGradient id="linear-gradient-18" x1="613.68" y1="18.22" x2="636.91" y2="18.22" xlink:href="#linear-gradient"/>
  </defs>
  <g id="Layer_1-2" data-name="Layer 1">
    <g>
      <g>
        <g>
          <path class="cls-6" d="M72.5,73.73c25.43,0,43.05,9.59,57.33,24.54l-22.53,21.41c-9.37-9.15-21.41-14.95-34.8-14.95-23.87,0-39.26,17.85-39.26,40.38s15.39,40.38,39.26,40.38c13.38,0,25.43-5.8,34.8-14.95l21.86,21.41c-13.38,14.05-31.9,24.54-56.66,24.54C30.11,216.5,0,185.04,0,145.11s30.11-71.38,72.5-71.38ZM72.5,210.25c19.63,0,34.35-6.25,46.85-17.85l-12.72-12.94c-8.03,7.14-20.75,12.27-34.13,12.27-28.78,0-47.74-20.52-47.74-46.62s18.96-46.62,47.74-46.62c12.71,0,24.98,4.69,34.58,12.05l12.71-12.27c-11.82-12.05-27.21-18.29-47.29-18.29-37.25,0-64.24,28.78-64.24,65.14s26.99,65.14,64.24,65.14ZM10.71,140.21h12.05l-.22,1.12h-12.05l.22-1.12ZM10.48,144.67h12.05v1.12h-12.05v-1.12ZM10.48,149.13h12.05l.22,1.12h-12.05l-.22-1.12ZM11.15,135.75h12.27l-.45,1.12h-12.05l.22-1.12ZM10.93,153.59h12.05l.45,1.12h-12.27l-.22-1.12ZM11.82,131.28h12.49l-.45,1.12h-12.27l.22-1.12ZM11.6,158.05h12.27l.45,1.12h-12.27l-.45-1.12ZM12.94,126.82h12.71l-.45,1.12h-12.49l.22-1.12ZM12.71,162.51h12.49l.45,1.12h-12.71l-.22-1.12ZM14.28,122.36h13.38l-.67,1.12h-12.94l.22-1.12ZM14.05,166.98h12.94l.67,1.12h-13.38l-.22-1.12ZM16.06,117.9h14.05l-.89,1.12h-13.61l.45-1.12ZM15.62,171.44h13.83l.89,1.12h-14.05l-.67-1.12ZM18.29,113.44h15.17l-.89,1.12h-14.95l.67-1.12ZM17.85,175.9h14.72l1.12,1.12h-15.17l-.67-1.12ZM21.19,108.98h16.51l-1.34,1.12h-16.06l.89-1.12ZM20.52,180.36h16.06l1.12,1.12h-16.51l-.67-1.12ZM24.31,104.52h18.74l-1.56,1.12h-18.07l.89-1.12ZM23.87,184.82h17.85l1.34,1.12h-18.52l-.67-1.12ZM28.55,100.05h23.42l-2.9,1.12h-21.64l1.12-1.12ZM49.52,189.28l2.23,1.12h-22.98l-1.12-1.12h21.86ZM33.68,95.59h38.81v.45l-8.7.67h-31.9l1.79-1.12ZM65.14,193.74c2.23,0,5.35.22,7.36.45v.67h-38.37l-1.34-1.12h32.35ZM40.15,91.13h32.35v1.12h-34.13l1.78-1.12ZM72.5,198.21v1.12h-31.9l-1.56-1.12h33.46ZM49.3,86.67h23.2v1.12h-26.1l2.9-1.12ZM72.5,202.67v1.12h-22.75l-2.9-1.12h25.65ZM72.5,82.43v.89h-11.38c3.79-.67,4.91-.89,11.38-.89ZM72.5,207.13v.67h-.45l-10.04-.67h10.48Z"/>
          <path class="cls-6" d="M174.66,172.78c0,7.81,6.25,14.05,13.83,14.05,8.25,0,13.38-4.68,13.38-11.6,0-10.04-13.16-12.94-24.09-16.73-22.53-8.03-35.02-18.51-35.02-41.49s20.3-43.28,45.51-43.28c29.67,0,43.72,18.96,45.51,43.72h-30.78c0-7.58-4.68-13.83-13.83-13.83-7.14,0-14.05,4.24-14.05,12.94,0,10.04,12.27,11.82,23.65,15.17,23.87,7.14,35.02,20.52,35.02,41.49,0,23.65-20.08,43.28-45.28,43.28-29.22,0-45.73-19.63-45.73-43.72h31.9ZM188.49,210.25c20.75,0,37.7-16.73,37.7-37.03,0-22.53-13.38-30.78-33.91-36.58-13.16-3.79-24.54-6.92-24.54-20.08,0-11.6,8.7-19.18,20.75-19.18,13.83,0,18.52,8.25,20.52,13.83h16.73c-1.34-13.16-11.15-31.23-37.25-31.23-20.75,0-38.15,16.73-38.15,37.03,0,16.51,6.25,26.99,30.78,35.69,12.72,4.68,28.11,8.03,28.11,22.53,0,11.82-10.26,17.85-20.75,17.85-11.38-.22-18.51-6.69-20.52-14.05h-17.4c.45,16.73,16.73,31.23,37.92,31.23ZM152.57,114.55h12.94v1.12h-12.94v-1.12ZM152.57,119.02h12.94l.22,1.12h-13.16v-1.12ZM153.47,109.87h12.94l-.45,1.34h-12.94l.45-1.34ZM153.02,123.7h13.38l.45,1.12h-13.61l-.22-1.12ZM154.13,128.16h14.95l-.22-.22,1.34,1.34h-15.84l-.22-1.12ZM154.58,105.41h13.61l-.67,1.12h-13.16l.22-1.12ZM156.81,100.72h15.39l-1.56,1.34h-14.5l.67-1.34ZM156.37,132.85h18.07l1.78,1.12h-19.18l-.67-1.12ZM159.71,96.26h19.63l-2.45,1.12h-18.07l.89-1.12ZM159.93,137.31h25.65l4.24,1.12h-28.78l-1.12-1.12ZM163.95,91.8h24.54v1.12h-25.88l1.34-1.12ZM165.07,141.77h35.02l3.35,1.34h-35.91l-2.45-1.34ZM170.64,87.12h17.85v1.12h-19.63l1.78-1.12ZM209.68,146.45l1.34,1.12h-35.47l-1.79-1.12h35.91ZM183.8,82.65h4.68v1.12h-10.04l5.35-1.12ZM215.7,150.91l1.12,1.34h-30.56l-3.35-1.34h32.79ZM188.49,196.64h25.43l-1.12,1.12h-24.32v-1.12ZM188.49,201.11h20.08l-1.56,1.12h-18.52v-1.12ZM188.49,205.79h11.38l-4.24,1.12h-7.14v-1.12ZM219.49,155.6l.45,1.12h-21.64l-2.45-1.12h23.65ZM202.1,191.96h15.84l-.67.89-.22.45h-17.62l2.68-1.34ZM221.5,160.06l.45,1.12h-16.28l-1.34-1.12h17.18ZM207.23,187.5h13.16l-.67,1.12h-13.61l1.12-1.12ZM208.34,164.75h14.72l.45,1.12h-14.5l-.67-1.12ZM210.13,182.81h12.27l-.45,1.34h-12.49l.67-1.34ZM210.57,169.21h13.16v1.12h-12.94l-.22-1.12ZM211.24,178.35h12.27l-.22,1.12h-12.27l.22-1.12ZM211.46,173.89h12.49l-.22,1.12h-12.27v-1.12Z"/>
          <path class="cls-6" d="M255.85,78.19h88.56v29h-55.77v24.09h51.53v28.55h-51.53v24.09h58.22v28.11h-91.01V78.19ZM338.61,205.79v-15.62h-58.22v-36.58h51.53v-16.06h-51.53v-36.58h55.77v-16.51h-72.05v121.35h74.51ZM268.12,202h68.26v1.12h-69.37l1.12-1.12ZM267.22,87.56h66.7v1.12h-65.58l-1.12-1.12ZM271.69,92.02h62.24v1.12h-61.12l-1.12-1.12ZM272.8,197.54h63.57v1.12h-64.69l1.12-1.12ZM276.15,96.49h57.77v1.12h-56.66l-1.12-1.12ZM277.49,193.07h58.89v1.12h-60.23l1.34-1.12ZM280.39,140.43h49.3v1.12h-49.3v-1.12ZM280.39,144.89h49.3v1.12h-49.3v-1.12ZM280.39,149.35h49.3v1.12h-49.3v-1.12Z"/>
        </g>
        <g>
          <path class="cls-6" d="M397.43,78.19h86.33v29h-53.54v28.55h49.3v28.55h-49.3v47.74h-32.79V78.19ZM421.97,205.79v-47.74h49.3v-16.06h-49.3v-41.05h53.54v-16.51h-69.82v121.35h16.28ZM408.81,87.56h64.47v1.12h-63.35l-1.11-1.12ZM413.27,92.02h60.01v1.12h-58.89l-1.11-1.12ZM417.73,96.49h55.55v1.12h-54.43l-1.12-1.12ZM421.97,144.89h47.07v1.12h-47.07v-1.12ZM421.97,149.35h47.07v1.12h-47.07v-1.12ZM421.97,153.81h47.07v1.12h-47.07v-1.12Z"/>
          <path class="cls-6" d="M497.36,78.19h88.56v29h-55.77v24.09h51.53v28.55h-51.53v24.09h58.22v28.11h-91.01V78.19ZM580.12,205.79v-15.62h-58.22v-36.58h51.53v-16.06h-51.53v-36.58h55.77v-16.51h-72.05v121.35h74.51ZM509.63,202h68.26v1.12h-69.38l1.11-1.12ZM508.74,87.56h66.7v1.12h-65.58l-1.11-1.12ZM513.2,92.02h62.24v1.12h-61.12l-1.11-1.12ZM514.31,197.54h63.58v1.12h-64.69l1.11-1.12ZM517.66,96.49h57.78v1.12h-56.66l-1.11-1.12ZM519,193.07h58.89v1.12h-60.23l1.34-1.12ZM521.9,140.43h49.3v1.12h-49.3v-1.12ZM521.9,144.89h49.3v1.12h-49.3v-1.12ZM521.9,149.35h49.3v1.12h-49.3v-1.12Z"/>
          <path class="cls-6" d="M635.43,172.78c0,7.81,6.25,14.05,13.83,14.05,8.25,0,13.38-4.68,13.38-11.6,0-10.04-13.16-12.94-24.09-16.73-22.53-8.03-35.02-18.51-35.02-41.49s20.3-43.28,45.51-43.28c29.67,0,43.72,18.96,45.51,43.72h-30.79c0-7.58-4.68-13.83-13.83-13.83-7.14,0-14.05,4.24-14.05,12.94,0,10.04,12.27,11.82,23.65,15.17,23.87,7.14,35.02,20.52,35.02,41.49,0,23.65-20.08,43.28-45.28,43.28-29.22,0-45.73-19.63-45.73-43.72h31.9ZM649.26,210.25c20.75,0,37.7-16.73,37.7-37.03,0-22.53-13.39-30.78-33.91-36.58-13.16-3.79-24.54-6.92-24.54-20.08,0-11.6,8.7-19.18,20.75-19.18,13.83,0,18.51,8.25,20.52,13.83h16.73c-1.34-13.16-11.15-31.23-37.25-31.23-20.75,0-38.15,16.73-38.15,37.03,0,16.51,6.25,26.99,30.78,35.69,12.71,4.68,28.11,8.03,28.11,22.53,0,11.82-10.26,17.85-20.75,17.85-11.38-.22-18.52-6.69-20.52-14.05h-17.4c.44,16.73,16.73,31.23,37.92,31.23ZM613.35,114.55h12.94v1.12h-12.94v-1.12ZM613.35,119.02h12.94l.22,1.12h-13.16v-1.12ZM614.24,109.87h12.94l-.45,1.34h-12.94l.45-1.34ZM613.79,123.7h13.39l.45,1.12h-13.61l-.22-1.12ZM614.91,128.16h14.95l-.22-.22,1.34,1.34h-15.84l-.22-1.12ZM615.36,105.41h13.61l-.67,1.12h-13.16l.22-1.12ZM617.59,100.72h15.39l-1.56,1.34h-14.5l.67-1.34ZM617.14,132.85h18.07l1.79,1.12h-19.19l-.67-1.12ZM620.49,96.26h19.63l-2.45,1.12h-18.07l.89-1.12ZM620.71,137.31h25.65l4.24,1.12h-28.78l-1.11-1.12ZM624.73,91.8h24.54v1.12h-25.88l1.34-1.12ZM625.84,141.77h35.02l3.35,1.34h-35.91l-2.45-1.34ZM631.42,87.12h17.85v1.12h-19.63l1.78-1.12ZM670.46,146.45l1.34,1.12h-35.47l-1.78-1.12h35.91ZM644.58,82.65h4.68v1.12h-10.04l5.35-1.12ZM676.48,150.91l1.12,1.34h-30.56l-3.35-1.34h32.79ZM649.26,196.64h25.43l-1.12,1.12h-24.31v-1.12ZM649.26,201.11h20.08l-1.56,1.12h-18.51v-1.12ZM649.26,205.79h11.38l-4.24,1.12h-7.14v-1.12ZM680.27,155.6l.44,1.12h-21.64l-2.45-1.12h23.65ZM662.87,191.96h15.84l-.67.89-.22.45h-17.62l2.68-1.34ZM682.28,160.06l.45,1.12h-16.29l-1.34-1.12h17.18ZM668,187.5h13.16l-.67,1.12h-13.61l1.12-1.12ZM669.12,164.75h14.72l.45,1.12h-14.5l-.67-1.12ZM670.9,182.81h12.27l-.44,1.34h-12.49l.67-1.34ZM671.35,169.21h13.16v1.12h-12.94l-.22-1.12ZM672.02,178.35h12.27l-.22,1.12h-12.27l.22-1.12ZM672.24,173.89h12.49l-.22,1.12h-12.27v-1.12Z"/>
          <path class="cls-6" d="M738.26,107.19h-30.11v-29h93.24v29h-30.34v104.84h-32.79v-104.84ZM762.8,205.79v-104.84h30.34v-16.51h-76.74v16.51h30.11v104.84h16.28ZM718.63,87.78h72.27v1.12h-72.27v-1.12ZM718.63,92.25h72.27v1.12h-72.27v-1.12ZM718.63,96.71h72.27v1.12h-72.27v-1.12Z"/>
        </g>
      </g>
      <g>
        <path class="cls-18" d="M3.74,468.33l65.2-69.69c-32.97-12.36-52.83-43.09-52.83-74.19,0-44.96,38.97-82.43,87.3-82.43s86.18,37.47,86.18,82.43c0,22.48-9.74,43.09-26.6,59.95l-40.47,40.84h67.07v49.08H3.74v-5.99ZM175.72,463.84v-28.1h-75.31v-5.62l50.21-50.58c17.61-17.98,25.1-34.47,25.1-55.08,0-39.34-32.22-71.94-72.31-71.94s-73.81,32.6-73.81,71.94c0,26.23,13.49,54.33,55.08,68.94l.37,6.37-60.32,64.07h151ZM34.46,458.22h137.89v1.87H32.59l1.87-1.87ZM41.58,450.72h130.76v1.87H39.71l1.87-1.87ZM48.7,443.23h123.65v1.87H46.83l1.87-1.87ZM55.82,435.74h41.22v1.87h-43.09l1.87-1.87ZM58.07,324.45c0-22.86,19.48-41.59,45.34-41.59s44.21,18.73,44.21,41.59-18.73,41.96-44.21,41.96-45.34-18.73-45.34-41.96ZM62.94,428.24h34.1v1.87h-35.97l1.87-1.87ZM70.06,420.75h34.47l-1.87,1.87h-34.47l1.87-1.87ZM134.5,324.45c0-16.86-13.49-30.35-31.1-30.35s-32.22,13.49-32.22,30.35,14.24,30.72,32.22,30.72,31.1-13.49,31.1-30.72ZM77.18,413.26h34.84l-1.87,1.87h-34.84l1.87-1.87ZM84.3,405.76h35.22l-1.87,1.87h-35.22l1.87-1.87ZM91.79,398.27h35.22l-1.87,1.87h-35.59l2.25-1.87ZM100.03,390.77h34.47l-1.87,1.87h-34.85l2.25-1.87ZM100.41,256.26l16.11,1.5h-16.11v-1.5ZM100.41,263.38h33.35l3.37,1.87h-36.72v-1.87ZM100.41,270.88h45.71l2.62,1.87h-48.33v-1.87ZM100.41,278.37h53.58l1.87,1.87h-41.59l-10.87-1.12h-3v-.75ZM108.28,383.28h33.35l-1.87,1.87h-33.72l2.25-1.87ZM116.52,375.79h32.6l-1.87,1.87h-32.97l2.25-1.87ZM124.76,368.29h31.1l-1.5,1.87h-31.85l2.25-1.87ZM159.98,285.86l1.5,1.87h-29.23l-3-1.87h30.72ZM133.01,360.8h28.1l-1.5,1.87h-28.85l2.25-1.87ZM138.25,293.36h26.23l.75,1.87h-25.1l-1.87-1.87ZM140.5,353.31h25.1l-1.12,1.87h-25.85l1.87-1.87ZM144.25,300.85h23.6l.75,1.87h-23.23l-1.12-1.87ZM145.74,345.81h22.86l-.75,1.87h-23.23l1.12-1.87ZM147.99,308.34h22.11l.75,1.87h-22.48l-.37-1.87ZM148.74,338.32h22.11l-.75,1.87h-22.11l.75-1.87ZM149.86,315.84h21.73v1.87h-20.98l-.75-1.87ZM150.61,330.82h21.36l-.37,1.87h-21.73l.75-1.87ZM150.99,323.33h21.36v1.87h-21.36v-1.87Z"/>
        <path class="cls-3" d="M219.17,249.52h55.08v100.42h.75l64.82-100.42h60.7l-77.19,106.79,81.31,118.03h-60.7l-68.94-109.03h-.75v109.03h-55.08v-224.81ZM260.38,463.84v-203.83h-27.35v203.83h27.35ZM352.56,463.84h30.72l-73.44-107.91,68.57-95.92h-29.6l-65.2,97.04,68.94,106.78ZM289.99,353.68h16.11l-1.5,1.87h-16.11l1.5-1.87ZM291.11,361.17h17.24l1.5,1.87h-17.61l-1.12-1.87ZM295.23,346.19h17.24l-1.5,1.87h-17.24l1.5-1.87ZM295.98,368.67h17.61l1.12,1.5h-17.99l-.75-1.5ZM300.1,338.69h17.99l-1.5,1.87h-17.98l1.5-1.87ZM300.48,375.79h17.61l1.5,1.87h-17.98l-1.12-1.87ZM305.35,331.2h17.98l-1.5,1.87h-17.99l1.5-1.87ZM305.35,383.28h17.98l1.5,1.87h-18.36l-1.12-1.87ZM310.22,323.7h18.36l-1.5,1.87h-18.36l1.5-1.87ZM310.22,390.77h17.98l1.5,1.87h-18.36l-1.12-1.87ZM315.46,316.21h18.36l-1.5,1.87h-18.36l1.5-1.87ZM315.09,398.27h18.36l1.5,1.87h-18.74l-1.12-1.87ZM320.33,308.72h18.73l-1.5,1.87h-18.73l1.5-1.87ZM338.32,405.76l1.5,1.87h-18.73l-1.12-1.87h18.36ZM325.58,301.22h18.73l-1.5,1.87h-18.74l1.5-1.87ZM343.56,413.26l1.5,1.87h-19.11l-1.12-1.87h18.73ZM330.45,293.73h19.11l-1.5,1.87h-19.11l1.5-1.87ZM348.44,420.75l1.5,1.87h-19.48l-1.12-1.87h19.11ZM335.32,286.61h19.49l-1.5,1.87h-19.48l1.5-1.87ZM353.68,428.24l1.5,1.87h-19.86l-1.12-1.87h19.48ZM340.19,279.12h19.86l-1.5,1.87h-19.86l1.5-1.87ZM358.55,435.74l1.87,1.87h-20.23l-1.12-1.87h19.49ZM345.44,271.62h19.86l-1.5,1.87h-19.86l1.5-1.87ZM363.8,443.23l1.87,1.87h-20.61l-1.12-1.87h19.86ZM369.04,450.35l1.5,1.87h-20.98l-1.12-1.87h20.61ZM350.31,264.13h20.23l-1.5,1.87h-20.23l1.5-1.87ZM373.91,457.84l1.87,1.87h-21.36l-1.12-1.87h20.61Z"/>
        <path class="cls-8" d="M412.12,468.33l65.2-69.69c-32.97-12.36-52.83-43.09-52.83-74.19,0-44.96,38.97-82.43,87.3-82.43s86.18,37.47,86.18,82.43c0,22.48-9.74,43.09-26.6,59.95l-40.47,40.84h67.07v49.08h-185.84v-5.99ZM584.1,463.84v-28.1h-75.31v-5.62l50.21-50.58c17.61-17.98,25.1-34.47,25.1-55.08,0-39.34-32.22-71.94-72.31-71.94s-73.81,32.6-73.81,71.94c0,26.23,13.49,54.33,55.08,68.94l.37,6.37-60.32,64.07h151ZM442.84,458.22h137.89v1.87h-139.76l1.87-1.87ZM449.96,450.72h130.76v1.87h-132.64l1.87-1.87ZM457.08,443.23h123.65v1.87h-125.52l1.87-1.87ZM464.2,435.74h41.22v1.87h-43.09l1.87-1.87ZM466.45,324.45c0-22.86,19.48-41.59,45.34-41.59s44.21,18.73,44.21,41.59-18.73,41.96-44.21,41.96-45.34-18.73-45.34-41.96ZM471.32,428.24h34.1v1.87h-35.97l1.87-1.87ZM478.44,420.75h34.47l-1.87,1.87h-34.47l1.87-1.87ZM542.88,324.45c0-16.86-13.49-30.35-31.1-30.35s-32.22,13.49-32.22,30.35,14.24,30.72,32.22,30.72,31.1-13.49,31.1-30.72ZM485.56,413.26h34.84l-1.87,1.87h-34.84l1.87-1.87ZM492.67,405.76h35.22l-1.87,1.87h-35.22l1.87-1.87ZM500.17,398.27h35.22l-1.87,1.87h-35.59l2.25-1.87ZM508.41,390.77h34.47l-1.87,1.87h-34.85l2.25-1.87ZM508.79,256.26l16.11,1.5h-16.11v-1.5ZM508.79,263.38h33.35l3.37,1.87h-36.72v-1.87ZM508.79,270.88h45.71l2.62,1.87h-48.33v-1.87ZM508.79,278.37h53.58l1.87,1.87h-41.59l-10.87-1.12h-3v-.75ZM516.65,383.28h33.35l-1.87,1.87h-33.72l2.25-1.87ZM524.9,375.79h32.6l-1.87,1.87h-32.97l2.25-1.87ZM533.14,368.29h31.1l-1.5,1.87h-31.85l2.25-1.87ZM568.36,285.86l1.5,1.87h-29.23l-3-1.87h30.72ZM541.38,360.8h28.1l-1.5,1.87h-28.85l2.25-1.87ZM546.63,293.36h26.23l.75,1.87h-25.1l-1.87-1.87ZM548.88,353.31h25.1l-1.12,1.87h-25.85l1.87-1.87ZM552.62,300.85h23.6l.75,1.87h-23.23l-1.12-1.87ZM554.12,345.81h22.86l-.75,1.87h-23.23l1.12-1.87ZM556.37,308.34h22.11l.75,1.87h-22.48l-.37-1.87ZM557.12,338.32h22.11l-.75,1.87h-22.11l.75-1.87ZM558.24,315.84h21.73v1.87h-20.98l-.75-1.87ZM558.99,330.82h21.36l-.37,1.87h-21.73l.75-1.87ZM559.37,323.33h21.36v1.87h-21.36v-1.87Z"/>
        <path class="cls-7" d="M601.32,421.87l106.41-172.36h53.21v132.64h36.72v46.09h-36.72v46.09h-52.08v-46.09h-107.53v-6.37ZM722.72,417.75v46.09h24.35v-46.09h36.72v-25.1h-36.72v-132.64h-30.35l-97.42,157.74h103.41ZM626.8,411.76h153.62v1.87h-155.12l1.5-1.87ZM631.3,404.26h149.12v1.87h-150.25l1.12-1.87ZM635.79,397.14h144.63v1.87h-146.13l1.5-1.87ZM640.29,389.65h19.48l-1.5,1.87h-19.11l1.12-1.87ZM645.16,382.16h19.11l-1.5,1.87h-19.11l1.5-1.87ZM649.65,374.66h19.11l-1.5,1.87h-18.74l1.12-1.87ZM654.15,367.54h18.73l-.75,1.5h-18.73l.75-1.5ZM659.02,360.05h18.36l-1.5,1.87h-18.36l1.5-1.87ZM721.22,292.98h1.5v99.67h-60.7l59.2-99.67ZM663.52,352.56h18.36l-1.5,1.87h-17.98l1.12-1.87ZM668.39,345.06h17.99l-1.5,1.87h-17.98l1.5-1.87ZM672.88,337.57h17.99l-1.5,1.87h-17.61l1.12-1.87ZM677.38,330.45h17.61l-1.12,1.87h-17.99l1.5-1.87ZM708.85,382.16v-47.96l-28.48,47.96h28.48ZM681.88,322.96h17.24l-1.12,1.87h-17.24l1.12-1.87ZM686.75,315.46h16.86l-1.12,1.87h-17.24l1.5-1.87ZM691.25,307.97h16.86l-1.12,1.87h-16.86l1.12-1.87ZM695.74,300.85h16.49l-.75,1.5h-16.49l.75-1.5ZM700.24,293.36h16.49l-1.5,1.87h-16.11l1.12-1.87ZM705.11,285.86h15.36l-1.5,1.87h-15.36l1.5-1.87ZM709.6,278.37h15.36l-1.5,1.87h-15.36l1.5-1.87ZM714.1,270.88h15.36l-1.5,1.87h-14.99l1.12-1.87ZM718.6,263.76h15.36l-1.5,1.87h-15.36l1.5-1.87Z"/>
      </g>
      <g>
        <path class="cls-9" d="M172.11,8.54h-7.63V1.14h23.8v7.4h-7.74v26.76h-8.43V8.54Z"/>
        <path class="cls-16" d="M192.15,1.14h22.6v7.4h-14.23v6.15h13.15v7.29h-13.15v6.15h14.86v7.17h-23.23V1.14Z"/>
        <path class="cls-13" d="M225.9,24.71c.4,2.45,1.37,3.99,4.04,3.99s4.44-1.14,4.44-5.29V1.14h8.26v23.74c0,7.17-5.64,11.56-12.3,11.56-7.12,0-12.53-4.27-12.53-11.44l8.08-.28Z"/>
        <path class="cls-10" d="M266.43,0c6.32,0,10.7,2.33,14.29,5.98l-5.81,5.35c-2.33-2.11-5.24-3.42-8.48-3.42-6.09,0-10.02,4.55-10.02,10.3,0,6.32,4.5,10.3,10.19,10.3,5.98,0,8.88-3.3,9.11-6.6h-9.73v-7.23h18.79v3.25c0,10.08-5.92,18.5-18.33,18.5-10.82,0-18.5-8.03-18.5-18.22S255.61,0,266.43,0Z"/>
        <path class="cls-14" d="M302.17,0h1.48l16.74,35.3h-8.99l-1.71-3.53h-13.49l-1.65,3.53h-8.99L302.17,0ZM306.84,25.79l-3.93-8.65h-.11l-3.99,8.65h8.03Z"/>
        <path class="cls-4" d="M337.63,0c10.76,0,18.39,8.03,18.39,18.22s-7.63,18.22-18.39,18.22-18.39-8.03-18.39-18.22,7.57-18.22,18.39-18.22ZM337.63,28.52c6.03,0,9.91-4.55,9.91-10.3s-3.87-10.3-9.91-10.3-9.9,4.55-9.9,10.3,3.81,10.3,9.9,10.3Z"/>
        <path class="cls-15" d="M361.82,1.14h8.82l13.26,20.27V1.14h8.31v34.16h-8.71l-13.32-20.32v20.32h-8.37V1.14Z"/>
        <path class="cls-5" d="M429.9,0c6.49,0,10.99,2.45,14.63,6.26l-5.75,5.47c-2.39-2.33-5.47-3.81-8.88-3.81-6.09,0-10.02,4.55-10.02,10.3s3.93,10.3,10.02,10.3c3.42,0,6.49-1.48,8.88-3.81l5.58,5.47c-3.42,3.59-8.14,6.26-14.46,6.26-10.82,0-18.5-8.03-18.5-18.22s7.69-18.22,18.5-18.22Z"/>
        <path class="cls-2" d="M465.59,0c10.76,0,18.39,8.03,18.39,18.22s-7.63,18.22-18.39,18.22-18.39-8.03-18.39-18.22,7.57-18.22,18.39-18.22ZM465.59,28.52c6.03,0,9.9-4.55,9.9-10.3s-3.87-10.3-9.9-10.3-9.9,4.55-9.9,10.3,3.81,10.3,9.9,10.3Z"/>
        <path class="cls-11" d="M489.77,1.14h8.37v26.98h14.86v7.17h-23.23V1.14Z"/>
        <path class="cls-1" d="M517.04,1.14h8.37v26.98h14.86v7.17h-23.23V1.14Z"/>
        <path class="cls-17" d="M544.3,1.14h22.6v7.4h-14.23v6.15h13.15v7.29h-13.15v6.15h14.86v7.17h-23.23V1.14Z"/>
        <path class="cls-12" d="M589.9,0c6.32,0,10.7,2.33,14.29,5.98l-5.81,5.35c-2.33-2.11-5.24-3.42-8.48-3.42-6.09,0-10.02,4.55-10.02,10.3,0,6.32,4.5,10.3,10.19,10.3,5.98,0,8.88-3.3,9.11-6.6h-9.74v-7.23h18.79v3.25c0,10.08-5.92,18.5-18.33,18.5-10.82,0-18.5-8.03-18.5-18.22s7.69-18.22,18.5-18.22Z"/>
        <path class="cls-19" d="M613.68,1.14h22.6v7.4h-14.23v6.15h13.15v7.29h-13.15v6.15h14.86v7.17h-23.23V1.14Z"/>
      </g>
    </g>
  </g>
</svg>